<svg width="683" height="73" viewBox="0 0 683 73" fill="none" xmlns="http://www.w3.org/2000/svg">
<path d="M6 0H677C680.3 0 683 2.7 683 6V67C683 70.3 680.3 73 677 73H6C2.7 73 0 70.3 0 67V6C0 2.7 2.7 0 6 0Z" fill="white"/>
<path d="M38.936 32.856V38.64H45.368V40.32H38.936V46.224H46.088V48H36.752V31.08H46.088V32.856H38.936ZM55.8286 34.608C57.3646 34.608 58.6046 35.104 59.5486 36.096C60.4926 37.072 60.9646 38.488 60.9646 40.344V48H58.7806V40.536C58.7806 39.224 58.4446 38.216 57.7726 37.512C57.1006 36.808 56.1886 36.456 55.0366 36.456C53.8366 36.456 52.8766 36.848 52.1566 37.632C51.4366 38.4 51.0766 39.528 51.0766 41.016V48H48.8926V34.824H51.0766V37.944C51.4126 36.872 52.0046 36.048 52.8526 35.472C53.7166 34.896 54.7086 34.608 55.8286 34.608ZM70.6025 46.08V48H68.9705C67.6265 48 66.6185 47.68 65.9465 47.04C65.2905 46.4 64.9625 45.328 64.9625 43.824V36.72H62.9945V34.824H64.9625V31.536H67.1705V34.824H70.5785V36.72H67.1705V43.872C67.1705 44.72 67.3225 45.304 67.6265 45.624C67.9465 45.928 68.4905 46.08 69.2585 46.08H70.6025ZM85.3876 40.68C85.3876 41.144 85.3556 41.544 85.2916 41.88H74.7556C74.8036 43.384 75.2276 44.512 76.0276 45.264C76.8436 46.016 77.8356 46.392 79.0036 46.392C80.0596 46.392 80.9396 46.128 81.6436 45.6C82.3636 45.056 82.8036 44.336 82.9636 43.44H85.2916C85.1316 44.352 84.7716 45.168 84.2116 45.888C83.6676 46.608 82.9556 47.168 82.0756 47.568C81.1956 47.968 80.2036 48.168 79.0996 48.168C77.8356 48.168 76.7156 47.896 75.7396 47.352C74.7636 46.808 73.9956 46.032 73.4356 45.024C72.8916 44 72.6196 42.8 72.6196 41.424C72.6196 40.048 72.8916 38.848 73.4356 37.824C73.9956 36.8 74.7636 36.016 75.7396 35.472C76.7156 34.928 77.8356 34.656 79.0996 34.656C80.3796 34.656 81.4916 34.928 82.4356 35.472C83.3956 36.016 84.1236 36.744 84.6196 37.656C85.1316 38.568 85.3876 39.576 85.3876 40.68ZM83.1796 40.824C83.2276 39.848 83.0676 39.032 82.6996 38.376C82.3316 37.72 81.8276 37.232 81.1876 36.912C80.5476 36.592 79.8516 36.432 79.0996 36.432C77.8996 36.432 76.8916 36.808 76.0756 37.56C75.2596 38.296 74.8196 39.384 74.7556 40.824H83.1796ZM90.4282 37.488C90.8602 36.576 91.4922 35.872 92.3242 35.376C93.1562 34.864 94.1482 34.608 95.3002 34.608V36.984H94.6282C93.3962 36.984 92.3882 37.304 91.6042 37.944C90.8202 38.568 90.4282 39.608 90.4282 41.064V48H88.2442V34.824H90.4282V37.488ZM104.297 34.824L108.569 45.192L112.529 34.824H114.953L107.129 54.24H104.657L107.393 47.784L101.849 34.824H104.297ZM122.931 34.656C124.195 34.656 125.323 34.928 126.315 35.472C127.323 36.016 128.107 36.8 128.667 37.824C129.243 38.848 129.531 40.048 129.531 41.424C129.531 42.8 129.243 44 128.667 45.024C128.107 46.032 127.323 46.808 126.315 47.352C125.323 47.896 124.195 48.168 122.931 48.168C121.667 48.168 120.531 47.896 119.523 47.352C118.531 46.808 117.747 46.032 117.171 45.024C116.595 44 116.307 42.8 116.307 41.424C116.307 40.048 116.595 38.848 117.171 37.824C117.747 36.8 118.531 36.016 119.523 35.472C120.531 34.928 121.667 34.656 122.931 34.656ZM122.931 36.576C122.147 36.576 121.419 36.752 120.747 37.104C120.091 37.456 119.555 38 119.139 38.736C118.739 39.456 118.539 40.352 118.539 41.424C118.539 42.48 118.739 43.376 119.139 44.112C119.555 44.832 120.091 45.368 120.747 45.72C121.419 46.072 122.147 46.248 122.931 46.248C123.715 46.248 124.435 46.072 125.091 45.72C125.763 45.368 126.299 44.832 126.699 44.112C127.115 43.376 127.323 42.48 127.323 41.424C127.323 40.352 127.115 39.456 126.699 38.736C126.299 38 125.763 37.456 125.091 37.104C124.435 36.752 123.715 36.576 122.931 36.576ZM144.089 34.824V48H141.905V44.904C141.569 45.976 140.969 46.8 140.105 47.376C139.257 47.936 138.265 48.216 137.129 48.216C135.609 48.216 134.377 47.728 133.433 46.752C132.489 45.76 132.017 44.344 132.017 42.504V34.824H134.201V42.288C134.201 43.6 134.537 44.616 135.209 45.336C135.881 46.04 136.793 46.392 137.945 46.392C139.145 46.392 140.105 46.008 140.825 45.24C141.545 44.456 141.905 43.32 141.905 41.832V34.824H144.089ZM149.772 37.488C150.204 36.576 150.836 35.872 151.668 35.376C152.5 34.864 153.492 34.608 154.644 34.608V36.984H153.972C152.74 36.984 151.732 37.304 150.948 37.944C150.164 38.568 149.772 39.608 149.772 41.064V48H147.588V34.824H149.772V37.488ZM174.849 40.68C174.849 41.144 174.817 41.544 174.753 41.88H164.217C164.265 43.384 164.689 44.512 165.489 45.264C166.305 46.016 167.297 46.392 168.465 46.392C169.521 46.392 170.401 46.128 171.105 45.6C171.825 45.056 172.265 44.336 172.425 43.44H174.753C174.593 44.352 174.233 45.168 173.673 45.888C173.129 46.608 172.417 47.168 171.537 47.568C170.657 47.968 169.665 48.168 168.561 48.168C167.297 48.168 166.177 47.896 165.201 47.352C164.225 46.808 163.457 46.032 162.897 45.024C162.353 44 162.081 42.8 162.081 41.424C162.081 40.048 162.353 38.848 162.897 37.824C163.457 36.8 164.225 36.016 165.201 35.472C166.177 34.928 167.297 34.656 168.561 34.656C169.841 34.656 170.953 34.928 171.897 35.472C172.857 36.016 173.585 36.744 174.081 37.656C174.593 38.568 174.849 39.576 174.849 40.68ZM172.641 40.824C172.689 39.848 172.529 39.032 172.161 38.376C171.793 37.72 171.289 37.232 170.649 36.912C170.009 36.592 169.313 36.432 168.561 36.432C167.361 36.432 166.353 36.808 165.537 37.56C164.721 38.296 164.281 39.384 164.217 40.824H172.641ZM193.905 34.608C195.441 34.608 196.673 35.104 197.601 36.096C198.545 37.072 199.017 38.488 199.017 40.344V48H196.833V40.536C196.833 39.24 196.513 38.248 195.873 37.56C195.249 36.872 194.385 36.528 193.281 36.528C192.129 36.528 191.201 36.912 190.497 37.68C189.809 38.432 189.465 39.544 189.465 41.016V48H187.281V40.536C187.281 39.24 186.961 38.248 186.321 37.56C185.681 36.872 184.817 36.528 183.729 36.528C182.561 36.528 181.625 36.912 180.921 37.68C180.233 38.432 179.889 39.544 179.889 41.016V48H177.705V34.824H179.889V37.824C180.209 36.784 180.777 35.992 181.593 35.448C182.425 34.888 183.377 34.608 184.449 34.608C185.569 34.608 186.537 34.896 187.353 35.472C188.185 36.032 188.777 36.864 189.129 37.968C189.497 36.896 190.113 36.072 190.977 35.496C191.841 34.904 192.817 34.608 193.905 34.608ZM207.808 34.656C209.088 34.656 210.168 34.976 211.048 35.616C211.944 36.256 212.568 37.112 212.92 38.184V34.824H215.104V48H212.92V44.64C212.568 45.712 211.944 46.568 211.048 47.208C210.168 47.848 209.088 48.168 207.808 48.168C206.64 48.168 205.6 47.896 204.688 47.352C203.776 46.808 203.056 46.032 202.528 45.024C202.016 44 201.76 42.8 201.76 41.424C201.76 40.048 202.016 38.848 202.528 37.824C203.056 36.8 203.776 36.016 204.688 35.472C205.6 34.928 206.64 34.656 207.808 34.656ZM208.432 36.6C207.088 36.6 206.008 37.032 205.192 37.896C204.392 38.744 203.992 39.92 203.992 41.424C203.992 42.928 204.392 44.112 205.192 44.976C206.008 45.824 207.088 46.248 208.432 46.248C209.296 46.248 210.064 46.048 210.736 45.648C211.424 45.248 211.96 44.688 212.344 43.968C212.728 43.232 212.92 42.384 212.92 41.424C212.92 40.464 212.728 39.616 212.344 38.88C211.96 38.144 211.424 37.584 210.736 37.2C210.064 36.8 209.296 36.6 208.432 36.6ZM218.196 30.96C218.196 30.56 218.332 30.24 218.604 30C218.876 29.744 219.236 29.616 219.684 29.616C220.132 29.616 220.492 29.744 220.764 30C221.036 30.24 221.172 30.56 221.172 30.96C221.172 31.36 221.036 31.688 220.764 31.944C220.492 32.184 220.132 32.304 219.684 32.304C219.236 32.304 218.876 32.184 218.604 31.944C218.332 31.688 218.196 31.36 218.196 30.96ZM220.764 34.824V48H218.58V34.824H220.764ZM226.459 30.24V48H224.275V30.24H226.459Z" fill="#CCCCCC"/>
</svg>
